<svg width="36" height="32" viewBox="0 0 36 32" fill="none" xmlns="http://www.w3.org/2000/svg">
<path d="M0 15.6C0 6.98436 6.98436 0 15.6 0H20.4C29.0156 0 36 6.98436 36 15.6V15.6C36 24.2156 29.0156 31.2 20.4 31.2H15.6C6.98436 31.2 0 24.2156 0 15.6V15.6Z" fill="#EEE3FF"/>
<path d="M19.7069 21.7792L18.0869 23.3992L16.4669 21.7792H12.4129C11.5204 21.7792 10.7969 21.0562 10.7969 20.1632V8.81524C10.7969 7.92273 11.5199 7.19922 12.4129 7.19922H23.7608C24.6534 7.19922 25.3769 7.92224 25.3769 8.81524V20.1632C25.3769 21.0557 24.6539 21.7792 23.7608 21.7792H19.7069ZM23.7569 20.1592V8.81922H12.4169V20.1592H17.1379L18.0869 21.1082L19.0359 20.1592H23.7569ZM14.8243 19.4957C14.3232 19.2787 13.8483 19.0125 13.4057 18.7032C14.4157 17.1422 16.1721 16.1092 18.1697 16.1092C20.1131 16.1092 21.8282 17.087 22.8498 18.5774C22.4154 18.8985 21.9477 19.1773 21.4528 19.4074C20.7171 18.3907 19.5206 17.7292 18.1697 17.7292C16.7799 17.7292 15.5538 18.4291 14.8243 19.4957ZM18.0869 15.2992C16.5211 15.2992 15.2519 14.0299 15.2519 12.4642C15.2519 10.8985 16.5211 9.62922 18.0869 9.62922C19.6526 9.62922 20.9219 10.8985 20.9219 12.4642C20.9219 14.0299 19.6526 15.2992 18.0869 15.2992ZM18.0869 13.6792C18.7579 13.6792 19.3019 13.1352 19.3019 12.4642C19.3019 11.7932 18.7579 11.2492 18.0869 11.2492C17.4159 11.2492 16.8719 11.7932 16.8719 12.4642C16.8719 13.1352 17.4159 13.6792 18.0869 13.6792Z" fill="#6341F0"/>
</svg>
