<svg width="36" height="32" viewBox="0 0 36 32" fill="none" xmlns="http://www.w3.org/2000/svg">
<path d="M0 15.6C0 6.98436 6.98436 0 15.6 0H20.4C29.0156 0 36 6.98436 36 15.6V15.6C36 24.2156 29.0156 31.2 20.4 31.2H15.6C6.98436 31.2 0 24.2156 0 15.6V15.6Z" fill="#FFE7EE"/>
<path d="M20.2647 16.5346L22.2735 22.0536L18.5765 23.3992L16.5678 17.8802L13.5 19.8042L14.7736 7.19922L23.8514 16.0366L20.2647 16.5346ZM20.2564 21.1131L18.1202 15.2436L20.4487 14.9203L16.0116 10.6007L15.3891 16.7618L17.3808 15.5127L19.517 21.3822L20.2564 21.1131Z" fill="#E73881"/>
</svg>
