<svg width="36" height="32" viewBox="0 0 36 32" fill="none" xmlns="http://www.w3.org/2000/svg">
<path d="M0 15.7021C0 7.03008 7.03008 0 15.7021 0H20.2979C28.9699 0 36 7.03008 36 15.7021V15.7021C36 24.3742 28.9699 31.4043 20.2979 31.4043H15.7021C7.03008 31.4043 0 24.3742 0 15.7021V15.7021Z" fill="#FFF9E3"/>
<path d="M22.5233 18.7634L25.7353 21.9754L24.6746 23.0361L21.4626 19.824C20.3077 20.748 18.843 21.3008 17.25 21.3008C13.524 21.3008 10.5 18.2768 10.5 14.5508C10.5 10.8248 13.524 7.80078 17.25 7.80078C20.976 7.80078 24 10.8248 24 14.5508C24 16.1438 23.4473 17.6085 22.5233 18.7634ZM21.0185 18.2069C21.9356 17.2617 22.5 15.9725 22.5 14.5508C22.5 11.6502 20.1506 9.30078 17.25 9.30078C14.3494 9.30078 12 11.6502 12 14.5508C12 17.4514 14.3494 19.8008 17.25 19.8008C18.6717 19.8008 19.9609 19.2364 20.9061 18.3193L21.0185 18.2069ZM18.1334 11.683C17.6126 11.9181 17.25 12.4421 17.25 13.0508C17.25 13.8792 17.9216 14.5508 18.75 14.5508C19.3586 14.5508 19.8827 14.1882 20.1179 13.6674C20.2037 13.9467 20.25 14.2433 20.25 14.5508C20.25 16.2076 18.9068 17.5508 17.25 17.5508C15.5931 17.5508 14.25 16.2076 14.25 14.5508C14.25 12.8939 15.5931 11.5508 17.25 11.5508C17.5575 11.5508 17.8541 11.597 18.1334 11.683Z" fill="#FFBB1B"/>
</svg>
