<svg width="1106" height="691" viewBox="0 0 1106 691" fill="none" xmlns="http://www.w3.org/2000/svg">
<path d="M72.9688 12.064C70.677 18.2064 66.5561 23.1995 61.3419 25.8203C66.5561 28.4411 70.677 33.4342 72.9688 39.5767C75.2605 33.4342 79.3814 28.4411 84.5956 25.8203C79.3814 23.1995 75.2605 18.2064 72.9688 12.064Z" stroke="#A690FF" stroke-width="4"/>
<path d="M1065.47 314.755C1061.2 331.306 1050.45 344.48 1036.67 349.32C1050.45 354.16 1061.2 367.335 1065.47 383.886C1069.74 367.335 1080.48 354.16 1094.26 349.32C1080.48 344.48 1069.74 331.306 1065.47 314.755Z" stroke="#A690FF" stroke-width="4"/>
<path d="M29.9688 632.252C26.7337 642.741 19.8125 651.149 10.9668 654.82C19.8125 658.491 26.7337 666.9 29.9688 677.388C33.2038 666.9 40.125 658.491 48.9707 654.82C40.125 651.149 33.2038 642.741 29.9688 632.252Z" stroke="#A690FF" stroke-width="4"/>
</svg>
