<svg width="1076" height="395" viewBox="0 0 1076 395" fill="none" xmlns="http://www.w3.org/2000/svg">
<path d="M1063.68 370.462C1062.01 369.138 1053.53 362.149 1052.92 361.581C1052.63 361.319 1052.63 360.596 1052.93 359.487C1055.08 351.162 1056.73 342.382 1056.38 341.191C1056.12 340.293 1054.23 339.785 1053.42 340.363C1052.61 340.942 1047.13 347.896 1043.46 353.077L1041.06 356.452C1021.11 354.949 1020.2 354.437 1027.21 360.114L1033.41 365.135C1036.92 367.995 1037.01 368.064 1036.82 369.148C1036.56 370.706 1035.78 378.497 1035.22 382.142C1033.99 389.969 1039.13 386.898 1047.45 374.756L1049.36 371.979C1049.76 372.067 1052.21 372.8 1063.32 374.693C1065.87 375.103 1066.16 372.398 1063.68 370.462ZM1058.64 370.211C1058.31 370.329 1050.82 369.239 1049.48 368.7C1047.86 368.05 1047.18 368.678 1042.4 375.259C1039.24 379.599 1039.11 379.655 1039.55 376.576C1040.13 372.719 1040.07 367.919 1040.24 366.866C1040.4 365.919 1038.91 364.595 1032.8 360.26C1029.73 358.086 1029.31 357.593 1030.74 357.732C1032.51 357.903 1041.15 358.477 1042.02 358.828C1042.86 359.166 1043.83 358.831 1044.45 357.996L1050.69 349.504C1051.78 348.028 1051.78 348.028 1050.41 354.964C1048.89 362.784 1048.86 362.41 1050.92 363.778C1053.48 365.496 1059.02 370.074 1058.64 370.211Z" fill="#14BD94"/>
<path d="M36.5799 66.3443C36.4461 67.9607 32.7443 67.5502 20.7992 64.6449C8.15674 61.5612 5.48011 60.4209 6.29236 58.6524C7.43928 56.2342 36.729 63.7246 36.5799 66.3443Z" fill="#14BD94"/>
<path d="M54.654 11.8006C59.4502 12.5445 59.9394 13.4623 61.4351 24.4763C62.9918 35.8506 62.8713 37.9837 60.7639 38.452C56.9393 39.2854 55.5617 36.4055 52.9346 22.4328C51.0022 12.1229 51.1141 11.2514 54.654 11.8006Z" fill="#14BD94"/>
<path d="M25.582 24.1776C29.0377 24.6669 30.1875 25.5469 33.6188 30.2657C43.7437 44.3022 52.0894 53.5253 45.3819 52.4381C42.6413 52.013 40.4899 49.5977 28.1007 33.5728C21.2939 24.6819 20.9544 23.5534 25.582 24.1776Z" fill="#14BD94"/>
</svg>
