<svg width="1497" height="595" viewBox="0 0 1497 595" fill="none" xmlns="http://www.w3.org/2000/svg">
<path fill-rule="evenodd" clip-rule="evenodd" d="M1414.73 545.866C1409.02 572.821 1408.89 577.373 1407.52 584.24C1405.42 594.682 1407.16 597.82 1410.61 591.133C1418.89 574.955 1441.32 555.665 1453.67 554.122C1455.36 553.916 1455.59 553.659 1454.72 553.093C1453.51 552.296 1450.68 552.759 1446.72 554.302C1434.09 559.24 1422.08 567.548 1413.21 579.276C1411.59 581.436 1411.59 581.694 1412.93 573.309C1414.49 563.432 1416.06 556.874 1418.48 546.663C1419.12 543.937 1415.73 541.211 1414.73 545.866ZM1463 552.553C1460.48 553.068 1461.92 554.251 1465.45 554.559C1466.76 554.662 1468.53 554.919 1469.41 555.099C1473.21 555.897 1472.06 553.762 1467.97 552.939C1464.93 552.322 1464.31 552.27 1463 552.553ZM1483.58 557.928C1473.98 561.555 1475.24 573.129 1485.43 574.852C1493.94 576.292 1500.3 565.362 1494.17 559.832C1491.91 557.8 1486.54 556.822 1483.58 557.928ZM1491.45 559.832C1493.81 561.324 1494.17 563.638 1492.55 567.059C1489.7 573.077 1483.37 574.75 1481.29 570.043C1478.82 564.462 1486.54 556.72 1491.45 559.832Z" fill="#A691FF"/>
<path fill-rule="evenodd" clip-rule="evenodd" d="M57.4635 28.9564C53.405 29.3939 51.6253 28.831 49.557 26.4898C48.1067 24.8747 46.718 20.3898 47.3515 19.4729C48.1893 18.2633 46.7555 18.183 43.4068 19.2198C37.5766 21.0251 31.5715 17.6095 27.75 10.241C26.5146 7.83851 22.6982 8.5285 23.5636 12.4873C25.7003 22.245 22.6741 29.9318 17.603 27.734C15.7883 26.9525 13.6001 28.3509 14.5919 29.6493C17.9639 33.9787 16.2036 43.1084 11.5843 45.2267C9.51492 46.1624 9.80967 47.6435 11.9325 46.9862C15.1018 46.0049 23.8367 52.311 25.9601 57.1581C27.3579 60.2968 30.423 57.7091 30.9419 57.057C33.6468 53.7293 35.6666 54.6442 40.041 61.1533C43.1675 65.8537 45.8571 66.9213 46.254 63.6529C47.422 53.9859 49.0311 50.5057 52.9521 49.095C55.9349 48.0404 55.8617 48.2272 55.4113 43.3864C55.0357 39.2104 55.17 37.1046 55.9266 35.527C56.7038 33.9102 59.1887 31.1418 60.4188 30.5643C63.0399 29.294 61.6117 28.4911 57.4635 28.9564ZM53.3122 32.7978C48.8869 37.8705 50.2277 41.3544 52.0009 47.2929L49.646 48.1528C46.2425 49.436 44.1392 51.9552 43.2028 55.9149C42.8441 57.4021 42.7451 57.3996 41.571 55.83C36.5842 49.2483 29.2095 53.367 28.4158 53.4489C28.3189 53.3478 25.2592 47.3814 19.0078 45.2869C16.5211 44.4514 16.5582 44.571 18.1228 43.1691C22.897 38.9058 19.5432 30.5081 19.5475 30.3102C19.6578 30.2433 29.2553 27.2715 29.0494 20.258C29.0144 18.6633 28.9845 18.6724 29.6758 19.2119C30.0559 19.4874 31.2955 20.3161 32.4887 20.9951C36.4877 23.3283 38.5251 22.501 44.0201 21.0944C44.0663 21.2439 41.9415 31.2069 52.8678 31.3624L54.55 31.3985L53.3122 32.7978Z" fill="#A691FF"/>
</svg>
