<svg width="1660" height="584" viewBox="0 0 1660 584" fill="none" xmlns="http://www.w3.org/2000/svg">
<g opacity="0.7">
<path fill-rule="evenodd" clip-rule="evenodd" d="M1618.99 0.635663C1623.28 1.96025 1646.96 7.39794 1656.82 11.7202C1660.58 13.3701 1659.86 13.3933 1658.33 17.2044C1656.72 21.2245 1656.31 21.9681 1654.73 23.7575C1649.43 29.7529 1644.18 29.7062 1643.64 29.8921C1644.57 30.3103 1645.96 31.0307 1648.92 32.2159C1651.52 33.2616 1651.45 33.1456 1650.64 35.7947C1647.61 45.485 1636.93 52.2237 1627.28 49.412C1626.33 49.1331 1627.03 47.0187 1630.44 47.5764C1635.67 48.4362 1641.64 45.9497 1645.38 41.3718C1646.31 40.2332 1649.31 34.3073 1649.08 34.0749C1647.15 32.2391 1612.15 22.2005 1612.04 22.3632C1610.88 23.6645 1611.04 30.5894 1612.29 34.4702C1613.69 38.7692 1619.36 44.5322 1624.21 46.5307C1625.98 47.2511 1625.19 48.6918 1623.01 48.6918C1619.89 48.6918 1612.43 42.3478 1610.11 37.77C1608.3 34.1681 1607.69 28.01 1608.83 24.7567C1610.71 19.3655 1610.76 19.3423 1615.71 20.9224C1619.17 22.0379 1619.4 22.0611 1618.61 21.2245C1614.76 17.1579 1612.69 7.83946 1613.78 3.0292C1614.59 -0.758663 1616.5 -0.13119 1618.99 0.635663ZM1616.31 5.07414C1616.31 12.3941 1619.47 22.3864 1626.96 24.3849C1639.67 27.7776 1641.2 29.474 1647.55 25.6397C1651.22 23.4089 1656.05 17.0417 1656.05 14.3693C1656.07 12.6032 1624.31 4.60915 1618.87 3.0522C1616.13 2.26211 1616.31 2.12292 1616.31 5.07414Z" fill="#FFBB1B"/>
</g>
<g opacity="0.7">
<g opacity="0.5">
<path fill-rule="evenodd" clip-rule="evenodd" d="M26.5973 582.348C28.2719 581.618 30.6765 580.373 31.9646 579.6C39.0066 575.435 47.4225 574.576 50.0847 577.711C51.7164 579.643 53.8633 579.901 53.8633 578.183C53.8633 575.349 49.4836 573.245 43.558 573.245H39.4789L41.6258 570.24C47.766 561.695 48.3242 553.751 42.9998 551.046C38.9207 548.942 33.0381 550.101 21.5306 555.382C18.2673 556.885 18.0096 556.972 18.3102 556.156C20.4571 550.531 7.40383 549.672 1.52125 555.039C-0.926243 557.272 1.17774 557.959 4.78457 556.113C11.3971 552.721 14.0164 555.468 9.37899 560.964C7.61851 563.026 9.37899 566.075 20.9724 560.664C36.3873 553.494 38.9636 552.763 39.4359 555.382C40.7241 562.983 32.7375 574.491 22.7758 579.343C14.1022 583.594 20.5859 585.01 26.5973 582.348Z" fill="#6341F0"/>
</g>
</g>
</svg>
